<?xml version="1.0"?><svg xmlns="http://www.w3.org/2000/svg" viewBox="0 0 30 30"> <path d="M 15 0 C 13.35499 0 12 1.3549904 12 3 L 8 3 C 6.346 3 5 4.346 5 6 L 5 23 C 5 24.654 6.346 26 8 26 L 22 26 C 23.654 26 25 24.654 25 23 L 25 6 C 25 4.346 23.654 3 22 3 L 18 3 C 18 1.3549904 16.64501 0 15 0 z M 15 2 C 15.564129 2 16 2.4358706 16 3 C 16 3.5641294 15.564129 4 15 4 C 14.435871 4 14 3.5641294 14 3 C 14 2.4358706 14.435871 2 15 2 z M 8 5 L 12 5 L 12 6 C 12 6.552 12.448 7 13 7 L 17 7 C 17.552 7 18 6.552 18 6 L 18 5 L 22 5 C 22.551 5 23 5.449 23 6 L 23 23 C 23 23.551 22.551 24 22 24 L 8 24 C 7.449 24 7 23.551 7 23 L 7 6 C 7 5.449 7.449 5 8 5 z M 12 12 A 1 1 0 0 0 11 13 A 1 1 0 0 0 12 14 A 1 1 0 0 0 13 13 A 1 1 0 0 0 12 12 z M 16 12 A 1 1 0 0 0 15 13 A 1 1 0 0 0 16 14 A 1 1 0 0 0 17 13 A 1 1 0 0 0 16 12 z M 20 12 A 1 1 0 0 0 19 13 A 1 1 0 0 0 20 14 A 1 1 0 0 0 21 13 A 1 1 0 0 0 20 12 z M 28 12 A 1 1 0 0 0 27 13 A 1 1 0 0 0 28 14 A 1 1 0 0 0 29 13 A 1 1 0 0 0 28 12 z M 12 16 A 1 1 0 0 0 11 17 A 1 1 0 0 0 12 18 A 1 1 0 0 0 13 17 A 1 1 0 0 0 12 16 z M 28 16 A 1 1 0 0 0 27 17 A 1 1 0 0 0 28 18 A 1 1 0 0 0 29 17 A 1 1 0 0 0 28 16 z M 12 20 A 1 1 0 0 0 11 21 A 1 1 0 0 0 12 22 A 1 1 0 0 0 13 21 A 1 1 0 0 0 12 20 z M 28 20 A 1 1 0 0 0 27 21 A 1 1 0 0 0 28 22 A 1 1 0 0 0 29 21 A 1 1 0 0 0 28 20 z M 28 24 A 1 1 0 0 0 27 25 A 1 1 0 0 0 28 26 A 1 1 0 0 0 29 25 A 1 1 0 0 0 28 24 z M 12 28 A 1 1 0 0 0 11 29 A 1 1 0 0 0 12 30 A 1 1 0 0 0 13 29 A 1 1 0 0 0 12 28 z M 16 28 A 1 1 0 0 0 15 29 A 1 1 0 0 0 16 30 A 1 1 0 0 0 17 29 A 1 1 0 0 0 16 28 z M 20 28 A 1 1 0 0 0 19 29 A 1 1 0 0 0 20 30 A 1 1 0 0 0 21 29 A 1 1 0 0 0 20 28 z M 24 28 A 1 1 0 0 0 23 29 A 1 1 0 0 0 24 30 A 1 1 0 0 0 25 29 A 1 1 0 0 0 24 28 z M 28 28 A 1 1 0 0 0 27 29 A 1 1 0 0 0 28 30 A 1 1 0 0 0 29 29 A 1 1 0 0 0 28 28 z"/></svg>