<svg xmlns="http://www.w3.org/2000/svg" viewBox="0 0 50 50"><path d="M 4 4 A 1.0001 1.0001 0 0 0 3 5 L 3 19 A 1.0001 1.0001 0 1 0 5 19 L 5 7.3164062 C 8.2930679 10.834782 11.278352 15.012423 14.894531 18.460938 C 17.112473 20.576042 19.654732 22.332486 22.591797 23.515625 C 23.375245 36.192539 33.944633 45 45.046875 45 A 1.0001 1.0001 0 1 0 45.046875 43 C 35.257083 43 25.851937 35.400325 24.708984 24.251953 C 26.33395 24.694247 28.048529 25 29.957031 25 C 41.208292 25 47 17.846069 47 12.619141 C 47 10.061114 46.307881 7.8664424 44.816406 6.328125 C 43.324931 4.7898076 41.107362 4 38.371094 4 C 33.860503 4 29.78909 6.566856 26.916016 10.1875 C 24.389022 13.372014 22.831946 17.402025 22.623047 21.439453 C 20.263088 20.374196 18.199996 18.849043 16.275391 17.013672 C 12.867822 13.764096 9.9120137 9.6390138 6.5078125 6 L 18 6 A 1.0001 1.0001 0 1 0 18 4 L 4 4 z M 38.371094 6 C 40.733825 6 42.333084 6.6400206 43.380859 7.7207031 C 44.428635 8.8013857 45 10.415167 45 12.619141 C 45 16.280212 40.353771 23 29.957031 23 C 27.957505 23 26.21986 22.631827 24.580078 22.119141 C 24.633028 18.376556 26.082968 14.455429 28.482422 11.431641 C 31.069598 8.1712843 34.625684 6 38.371094 6 z"/></svg>